<svg width="349" height="88" viewBox="0 0 349 88" fill="none" xmlns="http://www.w3.org/2000/svg">
<path d="M25.6 50H28.1V40.82L32.62 49.2L37.16 40.82V50H39.64V36.26H37.16L32.62 44.64L28.1 36.26H25.6V50ZM47.4256 48.08C45.9456 48.08 44.8656 47.08 44.5656 45.66H52.3656C52.3656 41.84 50.5056 39.42 47.3056 39.42C44.3656 39.42 42.0456 41.7 42.0456 44.8C42.0456 47.98 44.4856 50.24 47.4456 50.24C48.9456 50.24 50.7456 49.6 51.6456 48.64L50.1056 47.04C49.5256 47.64 48.3856 48.08 47.4256 48.08ZM47.4056 41.58C48.8656 41.58 49.7456 42.5 50.0256 43.8H44.5856C44.9456 42.44 46.0456 41.58 47.4056 41.58ZM58.3006 50.24C60.7206 50.24 62.3606 48.96 62.3606 46.98C62.3606 44.82 60.4806 44.22 58.7406 43.74C57.1606 43.28 56.6206 43.08 56.6206 42.42C56.6206 41.84 57.2806 41.5 58.1406 41.5C59.0406 41.5 60.1006 41.82 61.0806 42.44L62.1006 40.66C60.9806 39.92 59.5606 39.42 58.1406 39.42C55.8406 39.42 54.2406 40.74 54.2406 42.68C54.2606 44.52 55.6806 45.16 57.9206 45.74C59.1006 46.06 60.0006 46.32 60.0006 47.12C60.0006 47.76 59.3206 48.18 58.3406 48.18C57.0406 48.18 55.8806 47.7 54.8806 46.98L53.7806 48.68C55.0206 49.68 56.7206 50.24 58.3006 50.24ZM68.3006 50.24C70.7206 50.24 72.3606 48.96 72.3606 46.98C72.3606 44.82 70.4806 44.22 68.7406 43.74C67.1606 43.28 66.6206 43.08 66.6206 42.42C66.6206 41.84 67.2806 41.5 68.1406 41.5C69.0406 41.5 70.1006 41.82 71.0806 42.44L72.1006 40.66C70.9806 39.92 69.5606 39.42 68.1406 39.42C65.8406 39.42 64.2406 40.74 64.2406 42.68C64.2606 44.52 65.6806 45.16 67.9206 45.74C69.1006 46.06 70.0006 46.32 70.0006 47.12C70.0006 47.76 69.3206 48.18 68.3406 48.18C67.0406 48.18 65.8806 47.7 64.8806 46.98L63.7806 48.68C65.0206 49.68 66.7206 50.24 68.3006 50.24ZM78.9806 39.42C77.6806 39.42 76.3206 39.78 74.8606 40.5L75.7006 42.2C76.5806 41.76 77.5206 41.42 78.5006 41.42C80.3806 41.42 81.0406 42.58 81.0406 43.78V44.06C80.1006 43.7 79.0806 43.5 78.1406 43.5C75.8206 43.5 73.9206 44.9 73.9206 46.94C73.9206 48.94 75.5806 50.24 77.7806 50.24C78.9806 50.24 80.2806 49.72 81.0406 48.76V50H83.4206V43.78C83.4206 41.16 81.7206 39.42 78.9806 39.42ZM78.3206 48.46C77.1606 48.46 76.3006 47.84 76.3006 46.86C76.3006 45.88 77.2806 45.2 78.5006 45.2C79.4206 45.2 80.2806 45.34 81.0406 45.6V46.76C80.7606 47.86 79.5006 48.46 78.3206 48.46ZM93.7627 39.66V41.2C93.0227 40.1 91.6827 39.42 90.2227 39.42C87.5427 39.42 85.5627 41.44 85.5627 44.32C85.5627 47.2 87.5427 49.24 90.2227 49.24C91.7027 49.24 92.9427 48.58 93.7627 47.48V48.82C93.7627 50.38 92.4827 51.36 90.4427 51.36C89.2227 51.36 87.9827 50.94 87.2627 50.28L86.3627 52.06C87.3827 52.86 89.0227 53.44 90.8027 53.44C93.9627 53.44 96.2027 51.56 96.2027 48.9V39.66H93.7627ZM90.9227 47.16C89.2827 47.16 88.1027 45.98 88.1027 44.32C88.1027 42.68 89.2827 41.5 90.9227 41.5C92.5827 41.5 93.7627 42.68 93.7627 44.32C93.7627 45.98 92.5827 47.16 90.9227 47.16ZM103.754 48.08C102.274 48.08 101.194 47.08 100.894 45.66H108.694C108.694 41.84 106.834 39.42 103.634 39.42C100.694 39.42 98.3738 41.7 98.3738 44.8C98.3738 47.98 100.814 50.24 103.774 50.24C105.274 50.24 107.074 49.6 107.974 48.64L106.434 47.04C105.854 47.64 104.714 48.08 103.754 48.08ZM103.734 41.58C105.194 41.58 106.074 42.5 106.354 43.8H100.914C101.274 42.44 102.374 41.58 103.734 41.58ZM114.629 50.24C117.049 50.24 118.689 48.96 118.689 46.98C118.689 44.82 116.809 44.22 115.069 43.74C113.489 43.28 112.949 43.08 112.949 42.42C112.949 41.84 113.609 41.5 114.469 41.5C115.369 41.5 116.429 41.82 117.409 42.44L118.429 40.66C117.309 39.92 115.889 39.42 114.469 39.42C112.169 39.42 110.569 40.74 110.569 42.68C110.589 44.52 112.009 45.16 114.249 45.74C115.429 46.06 116.329 46.32 116.329 47.12C116.329 47.76 115.649 48.18 114.669 48.18C113.369 48.18 112.209 47.7 111.209 46.98L110.109 48.68C111.349 49.68 113.049 50.24 114.629 50.24Z" fill="black"/>
<path d="M136.547 42.7617L132.094 46.9512C131.947 47.0977 131.771 47.1562 131.625 47.1562C131.449 47.1562 131.273 47.0977 131.127 46.9805L126.674 42.7617C126.381 42.498 126.381 42.0586 126.645 41.7656C126.908 41.4727 127.348 41.4727 127.641 41.7363L131.625 45.4863L135.58 41.7363C135.873 41.4727 136.312 41.4727 136.576 41.7656C136.84 42.0586 136.84 42.498 136.547 42.7617Z" fill="black"/>
<rect x="148" y="33" width="28" height="22" rx="11" fill="#EDF2F7"/>
<path d="M158.244 48H159.732V39.756H158.532L156.216 41.328L156.828 42.384L158.244 41.484V48ZM161.263 48H167.323V46.632H163.591L165.319 45.24C166.735 44.148 167.239 43.272 167.239 42.18C167.239 40.656 165.991 39.612 164.359 39.612C163.027 39.612 162.031 40.2 161.251 41.22L162.223 42.12C162.823 41.4 163.447 40.956 164.311 40.956C165.055 40.956 165.715 41.436 165.715 42.216C165.715 42.888 165.343 43.512 164.299 44.352L161.263 46.776V48Z" fill="black"/>
<g filter="url(#filter0_d_1916_13436)">
<rect x="285" y="24" width="40" height="40" rx="20" fill="#615EF0"/>
<path d="M313.125 44.5C313.125 45.2031 312.539 45.7891 311.875 45.7891H306.25V51.4141C306.25 52.0781 305.664 52.625 305 52.625C304.297 52.625 303.75 52.0781 303.75 51.4141V45.7891H298.125C297.422 45.7891 296.875 45.2031 296.875 44.5C296.875 43.8359 297.422 43.2891 298.125 43.2891H303.75V37.6641C303.75 36.9609 304.297 36.375 305 36.375C305.664 36.375 306.25 36.9609 306.25 37.6641V43.2891H311.875C312.539 43.25 313.125 43.8359 313.125 44.5Z" fill="white"/>
</g>
<defs>
<filter id="filter0_d_1916_13436" x="270" y="9" width="70" height="70" filterUnits="userSpaceOnUse" color-interpolation-filters="sRGB">
<feFlood flood-opacity="0" result="BackgroundImageFix"/>
<feColorMatrix in="SourceAlpha" type="matrix" values="0 0 0 0 0 0 0 0 0 0 0 0 0 0 0 0 0 0 127 0" result="hardAlpha"/>
<feOffset/>
<feGaussianBlur stdDeviation="7.5"/>
<feComposite in2="hardAlpha" operator="out"/>
<feColorMatrix type="matrix" values="0 0 0 0 0.254355 0 0 0 0 0.244132 0 0 0 0 0.741667 0 0 0 0.24 0"/>
<feBlend mode="normal" in2="BackgroundImageFix" result="effect1_dropShadow_1916_13436"/>
<feBlend mode="normal" in="SourceGraphic" in2="effect1_dropShadow_1916_13436" result="shape"/>
</filter>
</defs>
</svg>
