<svg width="362" height="80" viewBox="0 0 362 80" fill="none" xmlns="http://www.w3.org/2000/svg">
<path d="M25.6 46H30.44C34.98 46 38.18 43.14 38.18 39.12C38.18 35.1 34.98 32.26 30.44 32.26H25.6V46ZM28.1 43.74V34.52H30.7C33.6 34.52 35.64 36.42 35.64 39.12C35.64 41.82 33.6 43.74 30.7 43.74H28.1ZM41.7948 34.1C42.5548 34.1 43.1748 33.44 43.1748 32.7C43.1748 31.96 42.5548 31.32 41.7948 31.32C41.0148 31.32 40.3948 31.96 40.3948 32.7C40.3948 33.44 41.0148 34.1 41.7948 34.1ZM40.5548 46H42.9948V35.66H40.5548V46ZM48.1916 37.66V35.66H45.7516V46H48.1916V40.78C48.1916 38.82 49.6716 37.5 51.8916 37.5V35.42C50.1916 35.42 48.8516 36.28 48.1916 37.66ZM58.5194 44.08C57.0394 44.08 55.9594 43.08 55.6594 41.66H63.4594C63.4594 37.84 61.5994 35.42 58.3994 35.42C55.4594 35.42 53.1394 37.7 53.1394 40.8C53.1394 43.98 55.5794 46.24 58.5394 46.24C60.0394 46.24 61.8394 45.6 62.7394 44.64L61.1994 43.04C60.6194 43.64 59.4794 44.08 58.5194 44.08ZM58.4994 37.58C59.9594 37.58 60.8394 38.5 61.1194 39.8H55.6794C56.0394 38.44 57.1394 37.58 58.4994 37.58ZM70.5544 46.24C72.1944 46.24 73.5744 45.56 74.5744 44.5L72.9344 43.08C72.3544 43.74 71.4744 44.16 70.5744 44.16C68.8744 44.16 67.4544 42.64 67.4544 40.82C67.4544 39.02 68.8744 37.5 70.5744 37.5C71.4544 37.5 72.3144 37.92 72.8744 38.54L74.5144 37.1C73.5344 36.08 72.1544 35.42 70.5944 35.42C67.5744 35.42 65.0344 37.88 65.0344 40.82C65.0344 43.76 67.5744 46.24 70.5544 46.24ZM81.6523 43.78C81.4323 44 81.0523 44.16 80.6323 44.16C80.0523 44.16 79.6123 43.66 79.6123 42.96V37.68H81.9523V35.66H79.6123V32.82H77.2323V35.66H75.7323V37.68H77.2323V43.26C77.2323 45 78.4323 46.24 80.1523 46.24C80.9323 46.24 81.7723 45.92 82.3523 45.42L81.6523 43.78ZM89.2463 46.24C92.2463 46.24 94.7863 43.76 94.7863 40.82C94.7863 37.88 92.2463 35.42 89.2463 35.42C86.2463 35.42 83.7063 37.88 83.7063 40.82C83.7063 43.76 86.2463 46.24 89.2463 46.24ZM89.2463 44.16C87.5263 44.16 86.0863 42.64 86.0863 40.82C86.0863 39.02 87.5263 37.5 89.2463 37.5C90.9463 37.5 92.3863 39.02 92.3863 40.82C92.3863 42.64 90.9463 44.16 89.2463 44.16ZM99.4025 37.66V35.66H96.9625V46H99.4025V40.78C99.4025 38.82 100.883 37.5 103.103 37.5V35.42C101.403 35.42 100.063 36.28 99.4025 37.66ZM107.01 49.6C108.57 49.58 109.77 48.68 110.55 46.72L114.93 35.66H112.41L109.57 43.38L106.55 35.66H103.97L108.35 46.08L107.91 47C107.61 47.5 107.17 47.68 106.59 47.68C106.21 47.68 105.71 47.54 105.27 47.3L104.75 49.06C105.37 49.4 106.23 49.6 107.01 49.6Z" fill="black"/>
<rect x="298" y="20" width="40" height="40" rx="20" fill="#615EF0" fill-opacity="0.1"/>
<path d="M320.5 33C320.5 31.6328 319.367 30.5 318 30.5C316.594 30.5 315.5 31.6328 315.5 33C315.5 34.4062 316.594 35.5 318 35.5C319.367 35.5 320.5 34.4062 320.5 33ZM320.5 40.5C320.5 39.1328 319.367 38 318 38C316.594 38 315.5 39.1328 315.5 40.5C315.5 41.9062 316.594 43 318 43C319.367 43 320.5 41.9062 320.5 40.5ZM320.5 48C320.5 46.6328 319.367 45.5 318 45.5C316.594 45.5 315.5 46.6328 315.5 48C315.5 49.4062 316.594 50.5 318 50.5C319.367 50.5 320.5 49.4062 320.5 48Z" fill="#615EF0"/>
</svg>
