<svg width="152" height="30" viewBox="0 0 152 30" fill="none" xmlns="http://www.w3.org/2000/svg">
<path d="M1.6 21H4.1V11.82L8.62 20.2L13.16 11.82V21H15.64V7.26H13.16L8.62 15.64L4.1 7.26H1.6V21ZM23.4256 19.08C21.9456 19.08 20.8656 18.08 20.5656 16.66H28.3656C28.3656 12.84 26.5056 10.42 23.3056 10.42C20.3656 10.42 18.0456 12.7 18.0456 15.8C18.0456 18.98 20.4856 21.24 23.4456 21.24C24.9456 21.24 26.7456 20.6 27.6456 19.64L26.1056 18.04C25.5256 18.64 24.3856 19.08 23.4256 19.08ZM23.4056 12.58C24.8656 12.58 25.7456 13.5 26.0256 14.8H20.5856C20.9456 13.44 22.0456 12.58 23.4056 12.58ZM34.3006 21.24C36.7206 21.24 38.3606 19.96 38.3606 17.98C38.3606 15.82 36.4806 15.22 34.7406 14.74C33.1606 14.28 32.6206 14.08 32.6206 13.42C32.6206 12.84 33.2806 12.5 34.1406 12.5C35.0406 12.5 36.1006 12.82 37.0806 13.44L38.1006 11.66C36.9806 10.92 35.5606 10.42 34.1406 10.42C31.8406 10.42 30.2406 11.74 30.2406 13.68C30.2606 15.52 31.6806 16.16 33.9206 16.74C35.1006 17.06 36.0006 17.32 36.0006 18.12C36.0006 18.76 35.3206 19.18 34.3406 19.18C33.0406 19.18 31.8806 18.7 30.8806 17.98L29.7806 19.68C31.0206 20.68 32.7206 21.24 34.3006 21.24ZM44.3006 21.24C46.7206 21.24 48.3606 19.96 48.3606 17.98C48.3606 15.82 46.4806 15.22 44.7406 14.74C43.1606 14.28 42.6206 14.08 42.6206 13.42C42.6206 12.84 43.2806 12.5 44.1406 12.5C45.0406 12.5 46.1006 12.82 47.0806 13.44L48.1006 11.66C46.9806 10.92 45.5606 10.42 44.1406 10.42C41.8406 10.42 40.2406 11.74 40.2406 13.68C40.2606 15.52 41.6806 16.16 43.9206 16.74C45.1006 17.06 46.0006 17.32 46.0006 18.12C46.0006 18.76 45.3206 19.18 44.3406 19.18C43.0406 19.18 41.8806 18.7 40.8806 17.98L39.7806 19.68C41.0206 20.68 42.7206 21.24 44.3006 21.24ZM54.9806 10.42C53.6806 10.42 52.3206 10.78 50.8606 11.5L51.7006 13.2C52.5806 12.76 53.5206 12.42 54.5006 12.42C56.3806 12.42 57.0406 13.58 57.0406 14.78V15.06C56.1006 14.7 55.0806 14.5 54.1406 14.5C51.8206 14.5 49.9206 15.9 49.9206 17.94C49.9206 19.94 51.5806 21.24 53.7806 21.24C54.9806 21.24 56.2806 20.72 57.0406 19.76V21H59.4206V14.78C59.4206 12.16 57.7206 10.42 54.9806 10.42ZM54.3206 19.46C53.1606 19.46 52.3006 18.84 52.3006 17.86C52.3006 16.88 53.2806 16.2 54.5006 16.2C55.4206 16.2 56.2806 16.34 57.0406 16.6V17.76C56.7606 18.86 55.5006 19.46 54.3206 19.46ZM69.7627 10.66V12.2C69.0227 11.1 67.6827 10.42 66.2227 10.42C63.5427 10.42 61.5627 12.44 61.5627 15.32C61.5627 18.2 63.5427 20.24 66.2227 20.24C67.7027 20.24 68.9427 19.58 69.7627 18.48V19.82C69.7627 21.38 68.4827 22.36 66.4427 22.36C65.2227 22.36 63.9827 21.94 63.2627 21.28L62.3627 23.06C63.3827 23.86 65.0227 24.44 66.8027 24.44C69.9627 24.44 72.2027 22.56 72.2027 19.9V10.66H69.7627ZM66.9227 18.16C65.2827 18.16 64.1027 16.98 64.1027 15.32C64.1027 13.68 65.2827 12.5 66.9227 12.5C68.5827 12.5 69.7627 13.68 69.7627 15.32C69.7627 16.98 68.5827 18.16 66.9227 18.16ZM79.7538 19.08C78.2738 19.08 77.1938 18.08 76.8938 16.66H84.6938C84.6938 12.84 82.8338 10.42 79.6338 10.42C76.6938 10.42 74.3738 12.7 74.3738 15.8C74.3738 18.98 76.8138 21.24 79.7738 21.24C81.2738 21.24 83.0738 20.6 83.9738 19.64L82.4338 18.04C81.8538 18.64 80.7138 19.08 79.7538 19.08ZM79.7338 12.58C81.1938 12.58 82.0738 13.5 82.3538 14.8H76.9138C77.2738 13.44 78.3738 12.58 79.7338 12.58ZM90.6288 21.24C93.0488 21.24 94.6888 19.96 94.6888 17.98C94.6888 15.82 92.8088 15.22 91.0688 14.74C89.4888 14.28 88.9488 14.08 88.9488 13.42C88.9488 12.84 89.6088 12.5 90.4688 12.5C91.3688 12.5 92.4288 12.82 93.4088 13.44L94.4288 11.66C93.3088 10.92 91.8888 10.42 90.4688 10.42C88.1688 10.42 86.5688 11.74 86.5688 13.68C86.5888 15.52 88.0088 16.16 90.2488 16.74C91.4288 17.06 92.3288 17.32 92.3288 18.12C92.3288 18.76 91.6488 19.18 90.6688 19.18C89.3688 19.18 88.2088 18.7 87.2088 17.98L86.1088 19.68C87.3488 20.68 89.0488 21.24 90.6288 21.24Z" fill="black"/>
<path d="M112.547 13.7617L108.094 17.9512C107.947 18.0977 107.771 18.1562 107.625 18.1562C107.449 18.1562 107.273 18.0977 107.127 17.9805L102.674 13.7617C102.381 13.498 102.381 13.0586 102.645 12.7656C102.908 12.4727 103.348 12.4727 103.641 12.7363L107.625 16.4863L111.58 12.7363C111.873 12.4727 112.312 12.4727 112.576 12.7656C112.84 13.0586 112.84 13.498 112.547 13.7617Z" fill="black"/>
<rect x="124" y="4" width="28" height="22" rx="11" fill="#EDF2F7"/>
<path d="M134.244 19H135.732V10.756H134.532L132.216 12.328L132.828 13.384L134.244 12.484V19ZM137.263 19H143.323V17.632H139.591L141.319 16.24C142.735 15.148 143.239 14.272 143.239 13.18C143.239 11.656 141.991 10.612 140.359 10.612C139.027 10.612 138.031 11.2 137.251 12.22L138.223 13.12C138.823 12.4 139.447 11.956 140.311 11.956C141.055 11.956 141.715 12.436 141.715 13.216C141.715 13.888 141.343 14.512 140.299 15.352L137.263 17.776V19Z" fill="black"/>
</svg>
