<svg width="301" height="48" viewBox="0 0 301 48" fill="none" xmlns="http://www.w3.org/2000/svg">
<rect width="301" height="48" rx="12" fill="#F3F3F3"/>
<path opacity="0.4" d="M33.7812 29.6289L30.1172 25.9648C30.9102 25.0078 31.3477 23.7773 31.3477 22.4375C31.3477 19.3203 28.7773 16.75 25.6602 16.75C22.5156 16.75 20 19.3203 20 22.4375C20 25.582 22.543 28.125 25.6602 28.125C26.9727 28.125 28.2031 27.6875 29.1875 26.8945L32.8516 30.5586C32.9883 30.6953 33.1523 30.75 33.3438 30.75C33.5078 30.75 33.6719 30.6953 33.7812 30.5586C34.0547 30.3125 34.0547 29.9023 33.7812 29.6289ZM21.3125 22.4375C21.3125 20.0312 23.2539 18.0625 25.6875 18.0625C28.0938 18.0625 30.0625 20.0312 30.0625 22.4375C30.0625 24.8711 28.0938 26.8125 25.6875 26.8125C23.2539 26.8125 21.3125 24.8711 21.3125 22.4375Z" fill="black"/>
<path opacity="0.4" d="M48.438 28.654C50.678 28.654 51.826 27.408 51.826 25.882C51.826 24.188 50.51 23.53 48.676 23.096C47.038 22.704 46.086 22.354 46.086 21.36C46.086 20.478 46.954 19.694 48.144 19.694C49.152 19.694 50.104 20.156 50.902 20.926L51.574 20.072C50.692 19.26 49.628 18.7 48.2 18.7C46.352 18.7 44.98 19.904 44.98 21.444C44.98 23.11 46.198 23.712 48.13 24.16C49.81 24.552 50.72 24.958 50.72 25.98C50.72 26.848 49.964 27.66 48.48 27.66C47.136 27.66 46.142 27.086 45.33 26.274L44.644 27.128C45.61 28.08 46.856 28.654 48.438 28.654ZM56.9119 27.73C55.4839 27.73 54.4899 26.694 54.3359 25.28H60.2579C60.2579 22.746 59.0119 21.094 56.8279 21.094C54.8819 21.094 53.2579 22.704 53.2579 24.86C53.2579 27.086 54.9939 28.668 56.9259 28.668C57.9339 28.668 59.2079 28.234 59.8379 27.548L59.1939 26.862C58.7459 27.352 57.7659 27.73 56.9119 27.73ZM56.8699 22.032C58.3119 22.032 59.0819 23.04 59.2219 24.342H54.3499C54.5459 22.942 55.5819 22.032 56.8699 22.032ZM64.9161 21.094C64.2161 21.094 63.3481 21.276 62.3121 21.794L62.7321 22.648C63.3901 22.312 64.1181 21.99 64.8461 21.99C66.4141 21.99 66.8061 23.11 66.8061 24.09V24.356C66.0641 24.118 65.2381 23.95 64.4541 23.95C62.9001 23.95 61.6121 24.916 61.6121 26.358C61.6121 27.786 62.7321 28.668 64.2581 28.668C65.2101 28.668 66.2881 28.22 66.8061 27.366V28.5H67.8561V24.09C67.8561 22.34 66.8901 21.094 64.9161 21.094ZM64.4401 27.744C63.4181 27.744 62.6341 27.212 62.6341 26.316C62.6341 25.448 63.5441 24.832 64.6221 24.832C65.4061 24.832 66.1481 24.944 66.8061 25.126V26.232C66.5261 27.254 65.3921 27.744 64.4401 27.744ZM71.1495 22.676V21.262H70.0995V28.5H71.1495V24.454C71.1495 23.04 72.3115 22.032 73.9495 22.032V21.094C72.6195 21.094 71.5835 21.71 71.1495 22.676ZM78.7619 28.668C79.7699 28.668 80.6939 28.248 81.3799 27.562L80.6519 26.848C80.1619 27.394 79.4899 27.73 78.7619 27.73C77.3199 27.73 76.1159 26.428 76.1159 24.874C76.1159 23.334 77.3199 22.032 78.7619 22.032C79.4759 22.032 80.1339 22.354 80.6099 22.872L81.3379 22.158C80.6519 21.5 79.7419 21.094 78.7619 21.094C76.7319 21.094 75.0099 22.816 75.0099 24.874C75.0099 26.932 76.7319 28.668 78.7619 28.668ZM86.4338 21.094C85.4118 21.094 84.4738 21.654 84.0538 22.424V18.714H83.0038V28.5H84.0538V23.894C84.0538 22.886 85.0758 22.032 86.2938 22.032C87.3578 22.032 88.0998 22.858 88.0998 24.034V28.5H89.1498V23.894C89.1498 22.256 88.0298 21.094 86.4338 21.094ZM103.161 21.094C102.069 21.094 101.117 21.696 100.823 22.634C100.431 21.696 99.5775 21.094 98.4855 21.094C97.5335 21.094 96.7495 21.57 96.3855 22.326V21.262H95.3355V28.5H96.3855V23.894C96.3855 22.802 97.1975 22.032 98.3455 22.032C99.3255 22.032 100.011 22.858 100.011 24.034V28.5H101.061V23.894C101.061 22.802 101.873 22.032 103.021 22.032C104.001 22.032 104.687 22.858 104.687 24.034V28.5H105.737V23.894C105.737 22.256 104.673 21.094 103.161 21.094ZM111.121 27.73C109.693 27.73 108.699 26.694 108.545 25.28H114.467C114.467 22.746 113.221 21.094 111.037 21.094C109.091 21.094 107.467 22.704 107.467 24.86C107.467 27.086 109.203 28.668 111.135 28.668C112.143 28.668 113.417 28.234 114.047 27.548L113.403 26.862C112.955 27.352 111.975 27.73 111.121 27.73ZM111.079 22.032C112.521 22.032 113.291 23.04 113.431 24.342H108.559C108.755 22.942 109.791 22.032 111.079 22.032ZM118.747 28.668C120.245 28.668 121.393 27.814 121.393 26.484C121.393 25.112 120.189 24.72 119.027 24.356C117.683 23.922 117.151 23.726 117.151 23.096C117.151 22.396 117.823 22.032 118.635 22.032C119.279 22.032 119.993 22.256 120.721 22.718L121.225 21.906C120.455 21.402 119.531 21.094 118.635 21.094C117.193 21.094 116.101 21.906 116.101 23.222C116.101 24.258 116.773 24.776 118.523 25.28C119.503 25.56 120.343 25.812 120.343 26.596C120.343 27.282 119.699 27.73 118.747 27.73C117.949 27.73 117.123 27.422 116.297 26.82L115.751 27.59C116.619 28.29 117.739 28.668 118.747 28.668ZM125.692 28.668C127.19 28.668 128.338 27.814 128.338 26.484C128.338 25.112 127.134 24.72 125.972 24.356C124.628 23.922 124.096 23.726 124.096 23.096C124.096 22.396 124.768 22.032 125.58 22.032C126.224 22.032 126.938 22.256 127.666 22.718L128.17 21.906C127.4 21.402 126.476 21.094 125.58 21.094C124.138 21.094 123.046 21.906 123.046 23.222C123.046 24.258 123.718 24.776 125.468 25.28C126.448 25.56 127.288 25.812 127.288 26.596C127.288 27.282 126.644 27.73 125.692 27.73C124.894 27.73 124.068 27.422 123.242 26.82L122.696 27.59C123.564 28.29 124.684 28.668 125.692 28.668ZM133.016 21.094C132.316 21.094 131.448 21.276 130.412 21.794L130.832 22.648C131.49 22.312 132.218 21.99 132.946 21.99C134.514 21.99 134.906 23.11 134.906 24.09V24.356C134.164 24.118 133.338 23.95 132.554 23.95C131 23.95 129.712 24.916 129.712 26.358C129.712 27.786 130.832 28.668 132.358 28.668C133.31 28.668 134.388 28.22 134.906 27.366V28.5H135.956V24.09C135.956 22.34 134.99 21.094 133.016 21.094ZM132.54 27.744C131.518 27.744 130.734 27.212 130.734 26.316C130.734 25.448 131.644 24.832 132.722 24.832C133.506 24.832 134.248 24.944 134.906 25.126V26.232C134.626 27.254 133.492 27.744 132.54 27.744ZM143.729 21.262V22.508C143.169 21.626 142.245 21.094 141.097 21.094C139.151 21.094 137.765 22.508 137.765 24.524C137.765 26.54 139.151 27.968 141.097 27.968C142.245 27.968 143.169 27.436 143.729 26.554V27.73C143.729 29.144 142.749 29.97 141.083 29.97C140.187 29.97 139.319 29.648 138.759 29.116L138.297 29.942C138.955 30.502 140.047 30.908 141.223 30.908C143.309 30.908 144.779 29.592 144.779 27.73V21.262H143.729ZM141.293 27.03C139.879 27.03 138.871 25.994 138.871 24.524C138.871 23.068 139.879 22.032 141.293 22.032C142.721 22.032 143.729 23.068 143.729 24.524C143.729 25.994 142.721 27.03 141.293 27.03ZM150.264 27.73C148.836 27.73 147.842 26.694 147.688 25.28H153.61C153.61 22.746 152.364 21.094 150.18 21.094C148.234 21.094 146.61 22.704 146.61 24.86C146.61 27.086 148.346 28.668 150.278 28.668C151.286 28.668 152.56 28.234 153.19 27.548L152.546 26.862C152.098 27.352 151.118 27.73 150.264 27.73ZM150.222 22.032C151.664 22.032 152.434 23.04 152.574 24.342H147.702C147.898 22.942 148.934 22.032 150.222 22.032ZM157.89 28.668C159.388 28.668 160.536 27.814 160.536 26.484C160.536 25.112 159.332 24.72 158.17 24.356C156.826 23.922 156.294 23.726 156.294 23.096C156.294 22.396 156.966 22.032 157.778 22.032C158.422 22.032 159.136 22.256 159.864 22.718L160.368 21.906C159.598 21.402 158.674 21.094 157.778 21.094C156.336 21.094 155.244 21.906 155.244 23.222C155.244 24.258 155.916 24.776 157.666 25.28C158.646 25.56 159.486 25.812 159.486 26.596C159.486 27.282 158.842 27.73 157.89 27.73C157.092 27.73 156.266 27.422 155.44 26.82L154.894 27.59C155.762 28.29 156.882 28.668 157.89 28.668Z" fill="black"/>
</svg>
