<svg width="30" height="248" viewBox="0 0 30 248" fill="none" xmlns="http://www.w3.org/2000/svg">
<path d="M28.2188 11.4375L15.5156 0.1875C15.3281 0.09375 15.1406 0.046875 15 0.046875C14.8125 0.046875 14.625 0.09375 14.4844 0.1875L1.73438 11.4375C1.54688 11.625 1.5 11.8125 1.5 12C1.5 12.4219 1.82812 12.75 2.25 12.75C2.39062 12.75 2.57812 12.7031 2.71875 12.5625L4.5 11.0156V20.25C4.5 22.3125 6.14062 23.9531 8.25 23.9531H21.7031C23.7656 23.9531 25.4531 22.2656 25.4531 20.25V11.0156L27.2344 12.5625C27.375 12.7031 27.5625 12.75 27.7031 12.75C28.0781 12.75 28.4531 12.4219 28.4531 12.0469C28.4531 11.8125 28.4062 11.625 28.2188 11.4375ZM17.25 22.5H12.75V15H17.25V22.5ZM23.9531 9.75V20.25C23.9531 21.5156 22.9219 22.5 21.7031 22.5H18.7031V14.7656C18.75 14.0625 18.1875 13.5 17.4844 13.5H12.5156C11.8125 13.5 11.25 14.0625 11.25 14.7656V22.5H8.25C6.98438 22.5 6 21.5156 6 20.25V9.75C6 9.75 5.95312 9.75 5.95312 9.70312L15 1.78125L24 9.70312C24 9.75 23.9531 9.75 23.9531 9.75Z" fill="black"/>
<path d="M19.5 68V59C19.5 57.3594 18.1406 56 16.5 56H3C1.3125 56 0 57.3594 0 59V68C0 69.6875 1.3125 71 3 71L4.5 71.0469V73.4375C4.5 73.8125 4.73438 74 5.0625 74C5.15625 74 5.25 74 5.39062 73.9062L10.5 71H16.5C18.1406 71 19.5 69.6875 19.5 68ZM9.89062 68.75L6.75 70.5781V68.75H3C2.57812 68.75 2.25 68.4219 2.25 68V59C2.25 58.625 2.57812 58.25 3 58.25H16.5C16.875 58.25 17.25 58.625 17.25 59V68C17.25 68.4219 16.875 68.75 16.5 68.75H9.89062ZM27 62H21V68C21 70.4844 18.9375 72.5 16.5 72.5H12V74C12 75.6875 13.3125 77 14.9531 77H20.8125L24.7031 79.9062C25.0312 80.1406 25.5 79.9531 25.5 79.5781V77H27C28.6406 77 30 75.6875 30 74.0469V65C30 63.3594 28.6406 62 27 62Z" fill="#615EF0"/>
<path d="M27.7031 125.5L18.4219 125.547C17.7188 125.547 17.3906 126.344 17.8594 126.812L24 132.953C24.2344 133.141 24.6562 133.281 25.0312 132.953C26.8594 131.266 28.0781 128.969 28.4531 126.344C28.5469 125.922 28.1719 125.5 27.7031 125.5ZM24.5156 131.359L20.2031 127H26.8125C26.4375 128.641 25.6406 130.094 24.5156 131.359ZM13.5 125.5V114.391C13.5 113.969 13.125 113.641 12.75 113.641C12.7031 113.641 12.6562 113.641 12.6562 113.641C7.07812 114.438 2.76562 119.266 3.04688 125.172C3.1875 131.125 8.29688 136 14.25 136C14.2969 136 14.2969 136 14.3438 136C16.7344 136 18.8906 135.25 20.7188 133.938C21.0938 133.703 21.0938 133.141 20.7656 132.812L13.5 125.5ZM14.3438 134.5C8.90625 134.5 4.64062 130.047 4.5 125.125C4.3125 120.438 7.5 116.359 12 115.281V125.5C12 125.922 12.1406 126.297 12.4219 126.578L19.0781 133.234C17.625 134.078 16.0312 134.5 14.3438 134.5ZM26.9531 122.5C26.5312 116.875 22.0781 112.469 16.4531 112C15.9844 112 15.7031 112.422 15.7031 112.797V122.5C15.7031 122.922 16.0312 123.25 16.4531 123.25H26.1562C26.625 123.25 27 122.922 26.9531 122.5ZM17.2031 121.75V113.594C21.4219 114.25 24.75 117.578 25.4062 121.75H17.2031Z" fill="black"/>
<path d="M26.7656 190.734L20.1094 184.125C21.6094 182.391 22.4531 180.188 22.4531 177.75C22.4531 172.406 18.0469 168 12.7031 168C7.3125 168 3 172.406 3 177.75C3 183.141 7.35938 187.5 12.7031 187.5C15.0938 187.5 17.2969 186.656 19.0312 185.156L25.6406 191.812C25.8281 191.953 26.0156 192 26.25 192C26.4375 192 26.625 191.953 26.7656 191.812C27.0469 191.531 27.0469 191.016 26.7656 190.734ZM12.75 186C8.15625 186 4.5 182.297 4.5 177.75C4.5 173.203 8.15625 169.5 12.75 169.5C17.2969 169.5 21 173.203 21 177.75C21 182.344 17.2969 186 12.75 186Z" fill="black"/>
<path d="M22.5 227H21V224.75C21 224.375 20.625 224 20.25 224C19.8281 224 19.5 224.375 19.5 224.75V227H10.5V224.75C10.5 224.375 10.125 224 9.75 224C9.32812 224 9 224.375 9 224.75V227H7.5C5.8125 227 4.5 228.359 4.5 230V245C4.5 246.688 5.8125 248 7.5 248H22.5C24.1406 248 25.5 246.688 25.5 245V230C25.5 228.359 24.1406 227 22.5 227ZM24 245C24 245.844 23.2969 246.5 22.5 246.5H7.5C6.65625 246.5 6 245.844 6 245V233H24V245ZM24 231.5H6V230C6 229.203 6.65625 228.5 7.5 228.5H22.5C23.2969 228.5 24 229.203 24 230V231.5ZM9 242H13.5C14.2969 242 15 241.344 15 240.5V236C15 235.203 14.2969 234.5 13.5 234.5H9C8.15625 234.5 7.5 235.203 7.5 236V240.5C7.5 241.344 8.15625 242 9 242ZM9 236H13.5V240.5H9V236Z" fill="black"/>
</svg>
