<svg width="362" height="368" viewBox="0 0 362 368" fill="none" xmlns="http://www.w3.org/2000/svg">
<path d="M24.232 7.478V5.882H16.994V15.5H18.744V11.51H23.714V9.914H18.744V7.478H24.232ZM26.5697 7.17C27.1017 7.17 27.5357 6.708 27.5357 6.19C27.5357 5.672 27.1017 5.224 26.5697 5.224C26.0237 5.224 25.5897 5.672 25.5897 6.19C25.5897 6.708 26.0237 7.17 26.5697 7.17ZM25.7017 15.5H27.4097V8.262H25.7017V15.5ZM29.2974 15.5H31.0054V5.714H29.2974V15.5ZM36.2671 14.156C35.2311 14.156 34.4751 13.456 34.2651 12.462H39.7251C39.7251 9.788 38.4231 8.094 36.1831 8.094C34.1251 8.094 32.5011 9.69 32.5011 11.86C32.5011 14.086 34.2091 15.668 36.2811 15.668C37.3311 15.668 38.5911 15.22 39.2211 14.548L38.1431 13.428C37.7371 13.848 36.9391 14.156 36.2671 14.156ZM36.2531 9.606C37.2751 9.606 37.8911 10.25 38.0871 11.16H34.2791C34.5311 10.208 35.3011 9.606 36.2531 9.606ZM43.8796 15.668C45.5736 15.668 46.7216 14.772 46.7216 13.386C46.7216 11.874 45.4056 11.454 44.1876 11.118C43.0816 10.796 42.7036 10.656 42.7036 10.194C42.7036 9.788 43.1656 9.55 43.7676 9.55C44.3976 9.55 45.1396 9.774 45.8256 10.208L46.5396 8.962C45.7556 8.444 44.7616 8.094 43.7676 8.094C42.1576 8.094 41.0376 9.018 41.0376 10.376C41.0516 11.664 42.0456 12.112 43.6136 12.518C44.4396 12.742 45.0696 12.924 45.0696 13.484C45.0696 13.932 44.5936 14.226 43.9076 14.226C42.9976 14.226 42.1856 13.89 41.4856 13.386L40.7156 14.576C41.5836 15.276 42.7736 15.668 43.8796 15.668Z" fill="black"/>
<rect x="56" width="36" height="22" rx="11" fill="#EDF2F7"/>
<path d="M66.244 15H67.732V6.756H66.532L64.216 8.328L64.828 9.384L66.244 8.484V15ZM69.2627 15H75.3227V13.632H71.5907L73.3187 12.24C74.7347 11.148 75.2387 10.272 75.2387 9.18C75.2387 7.656 73.9907 6.612 72.3587 6.612C71.0267 6.612 70.0307 7.2 69.2507 8.22L70.2227 9.12C70.8227 8.4 71.4467 7.956 72.3107 7.956C73.0547 7.956 73.7147 8.436 73.7147 9.216C73.7147 9.888 73.3427 10.512 72.2987 11.352L69.2627 13.776V15ZM79.5531 15.144C81.4371 15.144 82.7211 14.04 82.7211 12.336C82.7211 10.68 81.4611 9.744 79.9971 9.744C79.2891 9.744 78.7491 9.96 78.3291 10.248L78.4011 8.124H82.2771V6.756H76.9971L76.8771 11.136L77.8971 11.568C78.3651 11.208 78.9291 10.992 79.5771 10.992C80.5611 10.992 81.2211 11.556 81.2211 12.396C81.2211 13.2 80.5851 13.848 79.5771 13.848C78.7491 13.848 77.9931 13.428 77.3571 12.804L76.4691 13.872C77.2011 14.64 78.2091 15.144 79.5531 15.144Z" fill="black"/>
<rect x="28" y="42" width="48" height="48" rx="12" fill="#FFF5F5"/>
<path d="M60.1094 59.9062L55.0938 54.8906C54.5312 54.3281 53.7812 54 52.9844 54H46C44.3125 54 43 55.3594 43 57V75C43 76.6875 44.3125 78 46 78H58C59.6406 78 61 76.6875 61 75V62.0156C61 61.2188 60.6719 60.4688 60.1094 59.9062ZM53.5 55.6406C53.6875 55.6875 53.875 55.7812 54.0625 55.9688L59.0312 60.9375C59.2188 61.125 59.3125 61.3125 59.3594 61.5H54.25C53.8281 61.5 53.5 61.1719 53.5 60.75V55.6406ZM59.5 75C59.5 75.8438 58.7969 76.5 58 76.5H46C45.1562 76.5 44.5 75.8438 44.5 75V57C44.5 56.2031 45.1562 55.5 46 55.5H52V60.75C52 62.0156 52.9844 63 54.25 63H59.5V75ZM52.4688 67.5938C52.9375 66.0938 52.9844 64.9219 52.9844 64.6875C52.9844 63.75 52.2344 63 51.2969 63C50.4062 63 49.6562 63.75 49.6562 64.6875C49.6562 64.6875 49.6562 66.0469 50.3125 67.6875C49.9844 68.5781 49.5625 69.5156 49.0938 70.4062C48.0156 70.9219 47.125 71.4844 46.4688 72.1406C46.1406 72.4688 46 72.8906 46 73.3594C46 74.2969 46.7031 75 47.6406 75C48.1562 75 48.6719 74.7656 49 74.3438C49.2812 73.9688 49.8438 73.125 50.5 72C51.2969 71.6719 52.1875 71.4375 53.2188 71.2031C53.7812 71.5781 55.1875 72.4219 56.1719 72.4219C57.2031 72.4219 58 71.625 58 70.6406C58 69.6562 57.1562 68.8125 56.125 68.8125C55.375 68.8125 54.25 69 53.6875 69.0938C53.2188 68.6719 52.7969 68.1562 52.4688 67.5938ZM47.9219 73.5469C47.7344 73.7812 47.3125 73.6875 47.3125 73.3125C47.3125 73.2188 47.3594 73.1719 47.4062 73.125C47.8281 72.6562 48.3906 72.2812 48.9531 71.9531C48.4844 72.75 48.1094 73.2656 47.9219 73.5469ZM51.2969 64.3594C51.4844 64.3594 51.625 64.5 51.625 64.6875C51.625 65.3906 51.4375 66.3281 51.3438 66.7031C50.9688 65.625 50.9688 64.7344 50.9688 64.6875C50.9688 64.5 51.1094 64.3594 51.2969 64.3594ZM50.5 70.5469C50.8281 69.9375 51.1562 69.1875 51.4844 68.4375C51.7656 68.9531 52.1875 69.4688 52.7031 69.9375C52 70.125 51.25 70.3125 50.5 70.5469ZM56.125 70.1719C56.4062 70.1719 56.6406 70.3594 56.6406 70.6875C56.6406 70.9219 56.4531 71.1094 56.1719 71.1094C55.75 71.1094 54.7656 70.6406 54.2969 70.3594C54.3438 70.3594 55.5625 70.1719 56.125 70.1719Z" fill="#F56565"/>
<path d="M93.806 53.17C94.338 53.17 94.772 52.708 94.772 52.19C94.772 51.672 94.338 51.224 93.806 51.224C93.26 51.224 92.826 51.672 92.826 52.19C92.826 52.708 93.26 53.17 93.806 53.17ZM92.938 61.5H94.646V54.262H92.938V61.5ZM99.8797 51.714C97.8077 51.714 96.2957 53.086 96.2957 54.99C96.2957 56.908 97.7657 58.028 99.5297 58.028C100.51 58.028 101.434 57.622 102.022 56.936C101.91 58.826 100.944 60.128 99.5857 60.128C98.7317 60.128 98.1437 59.778 97.5557 59.26L96.7017 60.59C97.4717 61.248 98.3817 61.668 99.5717 61.668C102.078 61.668 103.828 59.498 103.828 56.53C103.828 53.758 102.61 51.714 99.8797 51.714ZM99.9917 56.6C98.9417 56.6 98.0737 55.97 98.0737 54.92C98.0737 54.038 98.7877 53.198 99.9637 53.198C101.126 53.198 101.728 53.996 101.938 55.27C101.658 56.082 100.916 56.6 99.9917 56.6ZM106.47 61.668C107.058 61.668 107.548 61.164 107.548 60.548C107.548 59.974 107.058 59.47 106.47 59.47C105.826 59.47 105.35 59.974 105.35 60.548C105.35 61.164 105.826 61.668 106.47 61.668ZM113.587 54.094C112.509 54.094 111.641 54.584 111.067 55.41V54.262H109.359V63.908H111.067V60.352C111.641 61.178 112.509 61.668 113.587 61.668C115.505 61.668 116.905 60.1 116.905 57.874C116.905 55.662 115.505 54.094 113.587 54.094ZM113.125 60.212C111.921 60.212 111.081 59.232 111.081 57.874C111.081 56.516 111.921 55.55 113.125 55.55C114.343 55.55 115.211 56.516 115.211 57.874C115.211 59.232 114.343 60.212 113.125 60.212ZM123.952 51.714V55.382C123.378 54.57 122.51 54.094 121.446 54.094C119.528 54.094 118.128 55.662 118.128 57.874C118.128 60.1 119.528 61.668 121.446 61.668C122.51 61.668 123.378 61.192 123.952 60.38V61.5H125.66V51.714H123.952ZM121.908 60.212C120.69 60.212 119.822 59.232 119.822 57.874C119.822 56.516 120.69 55.55 121.908 55.55C123.112 55.55 123.952 56.516 123.952 57.874C123.952 59.232 123.112 60.212 121.908 60.212ZM129.767 53.66C129.767 53.17 130.075 52.82 130.481 52.82C130.775 52.82 131.041 52.932 131.195 53.086L131.685 51.994C131.279 51.644 130.691 51.42 130.145 51.42C128.941 51.42 128.101 52.288 128.101 53.506V54.262H127.051V55.676H128.101V61.5H129.767V55.676H131.405V54.262H129.767V53.66Z" fill="black"/>
<path d="M92.852 80.5H94.352V77.728H96.44C98.204 77.728 99.524 76.6 99.524 74.992C99.524 73.384 98.204 72.256 96.44 72.256H92.852V80.5ZM94.352 76.348V73.636H96.272C97.292 73.636 98 74.152 98 74.992C98 75.832 97.292 76.348 96.272 76.348H94.352ZM100.812 80.5H103.716C106.44 80.5 108.36 78.784 108.36 76.372C108.36 73.96 106.44 72.256 103.716 72.256H100.812V80.5ZM102.312 79.144V73.612H103.872C105.612 73.612 106.836 74.752 106.836 76.372C106.836 77.992 105.612 79.144 103.872 79.144H102.312ZM116.036 73.624V72.256H109.832V80.5H111.332V77.08H115.592V75.712H111.332V73.624H116.036Z" fill="black" fill-opacity="0.4"/>
<path d="M130.672 72.112C128.896 72.112 127.6 73.288 127.6 74.92C127.6 76.564 128.86 77.524 130.372 77.524C131.212 77.524 132.004 77.176 132.508 76.588C132.412 78.208 131.584 79.324 130.42 79.324C129.688 79.324 129.184 79.024 128.68 78.58L127.948 79.72C128.608 80.284 129.388 80.644 130.408 80.644C132.556 80.644 134.056 78.784 134.056 76.24C134.056 73.864 133.012 72.112 130.672 72.112ZM130.768 76.3C129.868 76.3 129.124 75.76 129.124 74.86C129.124 74.104 129.736 73.384 130.744 73.384C131.74 73.384 132.256 74.068 132.436 75.16C132.196 75.856 131.56 76.3 130.768 76.3ZM142.597 74.152C141.673 74.152 140.893 74.608 140.593 75.328C140.209 74.596 139.489 74.152 138.613 74.152C137.833 74.152 137.197 74.536 136.885 75.136V74.296H135.421V80.5H136.885V76.696C136.885 75.94 137.449 75.4 138.241 75.4C138.961 75.4 139.453 75.976 139.453 76.792V80.5H140.881V76.696C140.881 75.94 141.433 75.4 142.237 75.4C142.945 75.4 143.437 75.976 143.437 76.792V80.5H144.865V76.552C144.865 75.148 143.893 74.152 142.597 74.152ZM150.109 74.152C149.185 74.152 148.441 74.572 147.949 75.28V72.112H146.485V80.5H147.949V79.516C148.441 80.224 149.185 80.644 150.109 80.644C151.753 80.644 152.953 79.3 152.953 77.392C152.953 75.496 151.753 74.152 150.109 74.152ZM149.713 79.396C148.681 79.396 147.961 78.556 147.961 77.392C147.961 76.228 148.681 75.4 149.713 75.4C150.757 75.4 151.501 76.228 151.501 77.392C151.501 78.556 150.757 79.396 149.713 79.396Z" fill="black" fill-opacity="0.4"/>
<rect x="294" y="46" width="40" height="40" rx="20" fill="#615EF0" fill-opacity="0.1"/>
<path d="M321.5 68.375H319.391L317.516 70.25H321.5C321.812 70.25 322.125 70.5625 322.125 70.875V74C322.125 74.3516 321.812 74.625 321.5 74.625H306.5C306.148 74.625 305.875 74.3516 305.875 74V70.875C305.875 70.5625 306.148 70.25 306.5 70.25H310.445L308.57 68.375H306.5C305.094 68.375 304 69.5078 304 70.875V74C304 75.4062 305.094 76.5 306.5 76.5H321.5C322.867 76.5 324 75.4062 324 74V70.875C324 69.5078 322.867 68.375 321.5 68.375ZM320.875 72.4375C320.875 71.9297 320.445 71.5 319.938 71.5C319.391 71.5 319 71.9297 319 72.4375C319 72.9844 319.391 73.375 319.938 73.375C320.445 73.375 320.875 72.9844 320.875 72.4375ZM313.336 70.9141C313.492 71.1094 313.727 71.1875 314 71.1875C314.234 71.1875 314.469 71.1094 314.625 70.9141L319.938 65.6016C320.328 65.25 320.328 64.6641 319.938 64.3125C319.586 63.9219 319 63.9219 318.648 64.3125L314.938 68.0234V57.4375C314.938 56.9297 314.508 56.5 314 56.5C313.453 56.5 313.062 56.9297 313.062 57.4375V68.0234L309.312 64.2734C308.922 63.9219 308.336 63.9219 307.984 64.2734C307.594 64.6641 307.594 65.25 307.984 65.6016L313.336 70.9141Z" fill="#615EF0"/>
<rect x="28" y="122" width="48" height="48" rx="12" fill="#F0FFF4"/>
<path d="M51.9062 147.406L50.6406 149.328C50.0781 148.625 48.9062 148.672 48.3906 149.422L46.1875 152.797C45.9062 153.266 45.9062 153.828 46.1406 154.25C46.375 154.719 46.8438 155 47.3594 155H56.5469C57.0625 155 57.5312 154.719 57.7656 154.25C58 153.781 58 153.266 57.7188 152.797L54.2031 147.406C53.7344 146.609 52.4219 146.609 51.9062 147.406ZM56.4062 153.5H47.4531L49.5625 150.406L50.0312 151.109C50.3125 151.531 51.0156 151.531 51.2969 151.109L53.0781 148.344L56.4062 153.5ZM47.5 147.125C48.1094 147.125 48.625 146.656 48.625 146C48.625 145.391 48.1094 144.875 47.5 144.875C46.8438 144.875 46.375 145.391 46.375 146C46.375 146.656 46.8438 147.125 47.5 147.125ZM60.1094 139.906L55.0938 134.891C54.5312 134.328 53.7812 134 52.9844 134H46C44.3125 134 43 135.359 43 137V155C43 156.688 44.3125 158 46 158H58C59.6406 158 61 156.688 61 155V142.016C61 141.219 60.6719 140.469 60.1094 139.906ZM53.5 135.641C53.6875 135.688 53.875 135.781 54.0625 135.969L59.0312 140.938C59.2188 141.125 59.3125 141.312 59.3594 141.5H54.25C53.8281 141.5 53.5 141.172 53.5 140.75V135.641ZM59.5 155C59.5 155.844 58.7969 156.5 58 156.5H46C45.1562 156.5 44.5 155.844 44.5 155V137C44.5 136.203 45.1562 135.5 46 135.5H52V140.75C52 142.016 52.9844 143 54.25 143H59.5V155Z" fill="#48BB78"/>
<path d="M96.55 141.654C98.846 141.654 100.162 140.436 100.162 138.714C100.162 136.964 98.818 136.32 96.816 135.872C95.29 135.522 94.576 135.242 94.576 134.458C94.576 133.786 95.234 133.198 96.2 133.198C97.152 133.198 98.118 133.604 98.958 134.332L99.91 133.044C98.944 132.218 97.796 131.7 96.27 131.7C94.24 131.7 92.812 132.932 92.812 134.612C92.812 136.418 94.198 136.992 96.186 137.454C97.726 137.818 98.412 138.084 98.412 138.882C98.412 139.568 97.796 140.156 96.606 140.156C95.346 140.156 94.324 139.652 93.442 138.854L92.434 140.1C93.498 141.094 94.898 141.654 96.55 141.654ZM105.188 141.668C106.336 141.668 107.302 141.192 108.002 140.45L106.854 139.456C106.448 139.918 105.832 140.212 105.202 140.212C104.012 140.212 103.018 139.148 103.018 137.874C103.018 136.614 104.012 135.55 105.202 135.55C105.818 135.55 106.42 135.844 106.812 136.278L107.96 135.27C107.274 134.556 106.308 134.094 105.216 134.094C103.102 134.094 101.324 135.816 101.324 137.874C101.324 139.932 103.102 141.668 105.188 141.668ZM111.094 135.662V134.262H109.386V141.5H111.094V137.846C111.094 136.474 112.13 135.55 113.684 135.55V134.094C112.494 134.094 111.556 134.696 111.094 135.662ZM118.324 140.156C117.288 140.156 116.532 139.456 116.322 138.462H121.782C121.782 135.788 120.48 134.094 118.24 134.094C116.182 134.094 114.558 135.69 114.558 137.86C114.558 140.086 116.266 141.668 118.338 141.668C119.388 141.668 120.648 141.22 121.278 140.548L120.2 139.428C119.794 139.848 118.996 140.156 118.324 140.156ZM118.31 135.606C119.332 135.606 119.948 136.25 120.144 137.16H116.336C116.588 136.208 117.358 135.606 118.31 135.606ZM126.636 140.156C125.6 140.156 124.844 139.456 124.634 138.462H130.094C130.094 135.788 128.792 134.094 126.552 134.094C124.494 134.094 122.87 135.69 122.87 137.86C122.87 140.086 124.578 141.668 126.65 141.668C127.7 141.668 128.96 141.22 129.59 140.548L128.512 139.428C128.106 139.848 127.308 140.156 126.636 140.156ZM126.622 135.606C127.644 135.606 128.26 136.25 128.456 137.16H124.648C124.9 136.208 125.67 135.606 126.622 135.606ZM135.523 134.094C134.571 134.094 133.731 134.556 133.283 135.228V134.262H131.575V141.5H133.283V136.922C133.395 136.152 134.137 135.55 135.033 135.55C135.929 135.55 136.559 136.25 136.559 137.23V141.5H138.211V136.894C138.211 135.256 137.105 134.094 135.523 134.094ZM142.739 141.668C144.433 141.668 145.581 140.772 145.581 139.386C145.581 137.874 144.265 137.454 143.047 137.118C141.941 136.796 141.563 136.656 141.563 136.194C141.563 135.788 142.025 135.55 142.627 135.55C143.257 135.55 143.999 135.774 144.685 136.208L145.399 134.962C144.615 134.444 143.621 134.094 142.627 134.094C141.017 134.094 139.897 135.018 139.897 136.376C139.911 137.664 140.905 138.112 142.473 138.518C143.299 138.742 143.929 138.924 143.929 139.484C143.929 139.932 143.453 140.226 142.767 140.226C141.857 140.226 141.045 139.89 140.345 139.386L139.575 140.576C140.443 141.276 141.633 141.668 142.739 141.668ZM151.013 134.094C150.047 134.094 149.193 134.556 148.759 135.256V131.714H147.051V141.5H148.759V137.118C148.759 136.25 149.557 135.55 150.523 135.55C151.419 135.55 152.049 136.25 152.049 137.23V141.5H153.701V136.894C153.701 135.256 152.595 134.094 151.013 134.094ZM159.055 141.668C161.155 141.668 162.933 139.932 162.933 137.874C162.933 135.816 161.155 134.094 159.055 134.094C156.955 134.094 155.177 135.816 155.177 137.874C155.177 139.932 156.955 141.668 159.055 141.668ZM159.055 140.212C157.851 140.212 156.843 139.148 156.843 137.874C156.843 136.614 157.851 135.55 159.055 135.55C160.245 135.55 161.253 136.614 161.253 137.874C161.253 139.148 160.245 140.212 159.055 140.212ZM168.027 139.946C167.873 140.1 167.607 140.212 167.313 140.212C166.907 140.212 166.599 139.862 166.599 139.372V135.676H168.237V134.262H166.599V132.274H164.933V134.262H163.883V135.676H164.933V139.582C164.933 140.8 165.773 141.668 166.977 141.668C167.523 141.668 168.111 141.444 168.517 141.094L168.027 139.946ZM169.59 138.406H173.356V136.908H169.59V138.406ZM178.217 141.668C180.387 141.668 181.801 140.492 181.801 138.84C181.801 137.538 180.793 136.796 179.771 136.558C180.807 136.25 181.591 135.494 181.591 134.332C181.591 132.806 180.233 131.714 178.189 131.714C176.551 131.714 175.431 132.442 174.661 133.408L175.697 134.472C176.355 133.744 177.083 133.282 178.035 133.282C179.071 133.282 179.827 133.828 179.827 134.612C179.827 135.452 179.085 135.914 177.951 135.9H176.873V137.412L177.951 137.398C179.309 137.398 180.023 137.846 180.023 138.7C180.023 139.54 179.309 140.114 178.161 140.114C177.125 140.114 176.201 139.652 175.529 138.896L174.465 140.044C175.249 140.982 176.537 141.668 178.217 141.668ZM186.752 141.668C188.824 141.668 190.504 140.66 190.504 138.938C190.504 137.804 189.678 136.964 188.544 136.53C189.51 136.138 190.252 135.424 190.252 134.304C190.252 132.68 188.614 131.714 186.752 131.714C184.946 131.714 183.266 132.652 183.266 134.304C183.266 135.396 183.98 136.11 184.974 136.53C183.854 136.936 183.014 137.776 183.014 138.938C183.014 140.646 184.666 141.668 186.752 141.668ZM186.752 135.9C185.954 135.858 184.988 135.382 184.988 134.528C184.988 133.772 185.744 133.198 186.752 133.198C187.76 133.198 188.53 133.772 188.53 134.528C188.53 135.368 187.578 135.858 186.752 135.9ZM186.752 140.17C185.618 140.17 184.764 139.61 184.764 138.77C184.764 137.874 185.87 137.342 186.752 137.3C187.648 137.342 188.74 137.874 188.74 138.77C188.74 139.61 187.872 140.17 186.752 140.17ZM193.698 141.5H195.434V131.882H194.034L191.332 133.716L192.046 134.948L193.698 133.898V141.5ZM198.298 141.5H200.272L204.248 133.198V131.882H197.304V133.478H202.218L198.298 141.5ZM206.986 141.668C207.574 141.668 208.064 141.164 208.064 140.548C208.064 139.974 207.574 139.47 206.986 139.47C206.342 139.47 205.866 139.974 205.866 140.548C205.866 141.164 206.342 141.668 206.986 141.668ZM214.103 134.094C213.025 134.094 212.157 134.584 211.583 135.41V134.262H209.875V143.908H211.583V140.352C212.157 141.178 213.025 141.668 214.103 141.668C216.021 141.668 217.421 140.1 217.421 137.874C217.421 135.662 216.021 134.094 214.103 134.094ZM213.641 140.212C212.437 140.212 211.597 139.232 211.597 137.874C211.597 136.516 212.437 135.55 213.641 135.55C214.859 135.55 215.727 136.516 215.727 137.874C215.727 139.232 214.859 140.212 213.641 140.212ZM222.913 134.094C221.961 134.094 221.121 134.556 220.673 135.228V134.262H218.965V141.5H220.673V136.922C220.785 136.152 221.527 135.55 222.423 135.55C223.319 135.55 223.949 136.25 223.949 137.23V141.5H225.601V136.894C225.601 135.256 224.495 134.094 222.913 134.094ZM232.846 134.262V135.34C232.328 134.57 231.39 134.094 230.368 134.094C228.492 134.094 227.106 135.508 227.106 137.524C227.106 139.54 228.492 140.968 230.368 140.968C231.404 140.968 232.272 140.506 232.846 139.736V140.674C232.846 141.766 231.95 142.452 230.522 142.452C229.668 142.452 228.8 142.158 228.296 141.696L227.666 142.942C228.38 143.502 229.528 143.908 230.774 143.908C232.986 143.908 234.554 142.592 234.554 140.73V134.262H232.846ZM230.858 139.512C229.71 139.512 228.884 138.686 228.884 137.524C228.884 136.376 229.71 135.55 230.858 135.55C232.02 135.55 232.846 136.376 232.846 137.524C232.846 138.686 232.02 139.512 230.858 139.512Z" fill="black"/>
<path d="M92.852 160.5H94.352V157.728H96.44C98.204 157.728 99.524 156.6 99.524 154.992C99.524 153.384 98.204 152.256 96.44 152.256H92.852V160.5ZM94.352 156.348V153.636H96.272C97.292 153.636 98 154.152 98 154.992C98 155.832 97.292 156.348 96.272 156.348H94.352ZM100.812 160.5H102.312V154.704L106.668 160.5H108.156V152.256H106.668V158.052L102.312 152.256H100.812V160.5ZM113.777 157.188H115.829V158.688C115.313 159.06 114.641 159.276 114.017 159.276C112.481 159.276 111.185 157.956 111.185 156.372C111.185 154.8 112.481 153.48 114.017 153.48C114.821 153.48 115.709 153.84 116.225 154.44L117.293 153.444C116.501 152.616 115.217 152.112 114.017 152.112C111.653 152.112 109.661 154.056 109.661 156.372C109.661 158.688 111.653 160.644 114.017 160.644C115.217 160.644 116.501 160.128 117.293 159.3V155.964H113.777V157.188Z" fill="black" fill-opacity="0.4"/>
<path d="M133.572 160.5H135.06V158.712H136.2V157.428H135.06V152.256H133.272L129.36 157.548L129.504 158.712H133.572V160.5ZM130.956 157.428L133.572 153.888V157.428H130.956ZM144.644 154.152C143.72 154.152 142.94 154.608 142.64 155.328C142.256 154.596 141.536 154.152 140.66 154.152C139.88 154.152 139.244 154.536 138.932 155.136V154.296H137.468V160.5H138.932V156.696C138.932 155.94 139.496 155.4 140.288 155.4C141.008 155.4 141.5 155.976 141.5 156.792V160.5H142.928V156.696C142.928 155.94 143.48 155.4 144.284 155.4C144.992 155.4 145.484 155.976 145.484 156.792V160.5H146.912V156.552C146.912 155.148 145.94 154.152 144.644 154.152ZM152.155 154.152C151.231 154.152 150.487 154.572 149.995 155.28V152.112H148.531V160.5H149.995V159.516C150.487 160.224 151.231 160.644 152.155 160.644C153.799 160.644 154.999 159.3 154.999 157.392C154.999 155.496 153.799 154.152 152.155 154.152ZM151.759 159.396C150.727 159.396 150.007 158.556 150.007 157.392C150.007 156.228 150.727 155.4 151.759 155.4C152.803 155.4 153.547 156.228 153.547 157.392C153.547 158.556 152.803 159.396 151.759 159.396Z" fill="black" fill-opacity="0.4"/>
<rect x="294" y="126" width="40" height="40" rx="20" fill="#615EF0" fill-opacity="0.1"/>
<path d="M321.5 148.375H319.391L317.516 150.25H321.5C321.812 150.25 322.125 150.562 322.125 150.875V154C322.125 154.352 321.812 154.625 321.5 154.625H306.5C306.148 154.625 305.875 154.352 305.875 154V150.875C305.875 150.562 306.148 150.25 306.5 150.25H310.445L308.57 148.375H306.5C305.094 148.375 304 149.508 304 150.875V154C304 155.406 305.094 156.5 306.5 156.5H321.5C322.867 156.5 324 155.406 324 154V150.875C324 149.508 322.867 148.375 321.5 148.375ZM320.875 152.438C320.875 151.93 320.445 151.5 319.938 151.5C319.391 151.5 319 151.93 319 152.438C319 152.984 319.391 153.375 319.938 153.375C320.445 153.375 320.875 152.984 320.875 152.438ZM313.336 150.914C313.492 151.109 313.727 151.188 314 151.188C314.234 151.188 314.469 151.109 314.625 150.914L319.938 145.602C320.328 145.25 320.328 144.664 319.938 144.312C319.586 143.922 319 143.922 318.648 144.312L314.938 148.023V137.438C314.938 136.93 314.508 136.5 314 136.5C313.453 136.5 313.062 136.93 313.062 137.438V148.023L309.312 144.273C308.922 143.922 308.336 143.922 307.984 144.273C307.594 144.664 307.594 145.25 307.984 145.602L313.336 150.914Z" fill="#615EF0"/>
<rect x="28" y="202" width="48" height="48" rx="12" fill="#EBF8FF"/>
<path d="M51.2969 225.766L49.2344 230.922L48.2031 225.859C48.1094 225.484 47.7344 225.203 47.3125 225.297C46.9375 225.344 46.6562 225.766 46.75 226.188L48.25 233.688C48.2969 234.016 48.5781 234.25 48.9062 234.25C49.2344 234.297 49.5625 234.109 49.6562 233.781L52 228.062L54.2969 233.781C54.3906 234.109 54.6719 234.25 55 234.25C55 234.25 55 234.25 55.0469 234.25C55.375 234.25 55.6562 234.016 55.7031 233.688L57.2031 226.188C57.2969 225.766 57.0156 225.391 56.6406 225.297C56.2188 225.203 55.8438 225.484 55.75 225.859L54.7188 230.922L52.6562 225.766C52.4219 225.156 51.5312 225.156 51.2969 225.766ZM60.1094 219.906L55.0938 214.891C54.5312 214.328 53.7812 214 52.9844 214H46C44.3125 214 43 215.359 43 217V235C43 236.688 44.3125 238 46 238H58C59.6406 238 61 236.688 61 235V222.016C61 221.219 60.6719 220.469 60.1094 219.906ZM53.5 215.641C53.6875 215.688 53.875 215.781 54.0625 215.969L59.0312 220.938C59.2188 221.125 59.3125 221.312 59.3594 221.5H54.25C53.8281 221.5 53.5 221.172 53.5 220.75V215.641ZM59.5 235C59.5 235.844 58.7969 236.5 58 236.5H46C45.1562 236.5 44.5 235.844 44.5 235V217C44.5 216.203 45.1562 215.5 46 215.5H52V220.75C52 222.016 52.9844 223 54.25 223H59.5V235Z" fill="#4299E1"/>
<path d="M95.612 221.668C97.306 221.668 98.454 220.772 98.454 219.386C98.454 217.874 97.138 217.454 95.92 217.118C94.814 216.796 94.436 216.656 94.436 216.194C94.436 215.788 94.898 215.55 95.5 215.55C96.13 215.55 96.872 215.774 97.558 216.208L98.272 214.962C97.488 214.444 96.494 214.094 95.5 214.094C93.89 214.094 92.77 215.018 92.77 216.376C92.784 217.664 93.778 218.112 95.346 218.518C96.172 218.742 96.802 218.924 96.802 219.484C96.802 219.932 96.326 220.226 95.64 220.226C94.73 220.226 93.918 219.89 93.218 219.386L92.448 220.576C93.316 221.276 94.506 221.668 95.612 221.668ZM103.886 214.094C102.92 214.094 102.066 214.556 101.632 215.256V211.714H99.924V221.5H101.632V217.118C101.632 216.25 102.43 215.55 103.396 215.55C104.292 215.55 104.922 216.25 104.922 217.23V221.5H106.574V216.894C106.574 215.256 105.468 214.094 103.886 214.094ZM111.578 214.094C110.668 214.094 109.716 214.346 108.694 214.85L109.282 216.04C109.898 215.732 110.556 215.494 111.242 215.494C112.558 215.494 113.02 216.306 113.02 217.146V217.342C112.362 217.09 111.648 216.95 110.99 216.95C109.366 216.95 108.036 217.93 108.036 219.358C108.036 220.758 109.198 221.668 110.738 221.668C111.578 221.668 112.488 221.304 113.02 220.632V221.5H114.686V217.146C114.686 215.312 113.496 214.094 111.578 214.094ZM111.116 220.422C110.304 220.422 109.702 219.988 109.702 219.302C109.702 218.616 110.388 218.14 111.242 218.14C111.886 218.14 112.488 218.238 113.02 218.42V219.232C112.824 220.002 111.942 220.422 111.116 220.422ZM118.286 215.662V214.262H116.578V221.5H118.286V217.846C118.286 216.474 119.322 215.55 120.876 215.55V214.094C119.686 214.094 118.748 214.696 118.286 215.662ZM125.515 220.156C124.479 220.156 123.723 219.456 123.513 218.462H128.973C128.973 215.788 127.671 214.094 125.431 214.094C123.373 214.094 121.749 215.69 121.749 217.86C121.749 220.086 123.457 221.668 125.529 221.668C126.579 221.668 127.839 221.22 128.469 220.548L127.391 219.428C126.985 219.848 126.187 220.156 125.515 220.156ZM125.501 215.606C126.523 215.606 127.139 216.25 127.335 217.16H123.527C123.779 216.208 124.549 215.606 125.501 215.606ZM132.638 213.66C132.638 213.17 132.946 212.82 133.352 212.82C133.646 212.82 133.912 212.932 134.066 213.086L134.556 211.994C134.15 211.644 133.562 211.42 133.016 211.42C131.812 211.42 130.972 212.288 130.972 213.506V214.262H129.922V215.676H130.972V221.5H132.638V215.676H134.276V214.262H132.638V213.66ZM136.503 213.17C137.035 213.17 137.469 212.708 137.469 212.19C137.469 211.672 137.035 211.224 136.503 211.224C135.957 211.224 135.523 211.672 135.523 212.19C135.523 212.708 135.957 213.17 136.503 213.17ZM135.635 221.5H137.343V214.262H135.635V221.5ZM139.231 221.5H140.939V211.714H139.231V221.5ZM146.201 220.156C145.165 220.156 144.409 219.456 144.199 218.462H149.659C149.659 215.788 148.357 214.094 146.117 214.094C144.059 214.094 142.435 215.69 142.435 217.86C142.435 220.086 144.143 221.668 146.215 221.668C147.265 221.668 148.525 221.22 149.155 220.548L148.077 219.428C147.671 219.848 146.873 220.156 146.201 220.156ZM146.187 215.606C147.209 215.606 147.825 216.25 148.021 217.16H144.213C144.465 216.208 145.235 215.606 146.187 215.606ZM152.175 221.668C152.763 221.668 153.253 221.164 153.253 220.548C153.253 219.974 152.763 219.47 152.175 219.47C151.531 219.47 151.055 219.974 151.055 220.548C151.055 221.164 151.531 221.668 152.175 221.668ZM160.524 211.714V215.382C159.95 214.57 159.082 214.094 158.018 214.094C156.1 214.094 154.7 215.662 154.7 217.874C154.7 220.1 156.1 221.668 158.018 221.668C159.082 221.668 159.95 221.192 160.524 220.38V221.5H162.232V211.714H160.524ZM158.48 220.212C157.262 220.212 156.394 219.232 156.394 217.874C156.394 216.516 157.262 215.55 158.48 215.55C159.684 215.55 160.524 216.516 160.524 217.874C160.524 219.232 159.684 220.212 158.48 220.212ZM167.655 221.668C169.755 221.668 171.533 219.932 171.533 217.874C171.533 215.816 169.755 214.094 167.655 214.094C165.555 214.094 163.777 215.816 163.777 217.874C163.777 219.932 165.555 221.668 167.655 221.668ZM167.655 220.212C166.451 220.212 165.443 219.148 165.443 217.874C165.443 216.614 166.451 215.55 167.655 215.55C168.845 215.55 169.853 216.614 169.853 217.874C169.853 219.148 168.845 220.212 167.655 220.212ZM176.5 221.668C177.648 221.668 178.614 221.192 179.314 220.45L178.166 219.456C177.76 219.918 177.144 220.212 176.514 220.212C175.324 220.212 174.33 219.148 174.33 217.874C174.33 216.614 175.324 215.55 176.514 215.55C177.13 215.55 177.732 215.844 178.124 216.278L179.272 215.27C178.586 214.556 177.62 214.094 176.528 214.094C174.414 214.094 172.636 215.816 172.636 217.874C172.636 219.932 174.414 221.668 176.5 221.668ZM187.293 221.5L184.577 217.79L187.167 214.262H185.305L183.653 216.516L182.001 214.262H180.125L182.715 217.804L179.999 221.5H181.861L183.639 219.078L185.403 221.5H187.293Z" fill="black"/>
<path d="M92.96 240.5H95.864C98.588 240.5 100.508 238.784 100.508 236.372C100.508 233.96 98.588 232.256 95.864 232.256H92.96V240.5ZM94.46 239.144V233.612H96.02C97.76 233.612 98.984 234.752 98.984 236.372C98.984 237.992 97.76 239.144 96.02 239.144H94.46ZM106.001 240.644C108.341 240.644 110.321 238.688 110.321 236.372C110.321 234.056 108.341 232.112 106.001 232.112C103.649 232.112 101.669 234.056 101.669 236.372C101.669 238.688 103.649 240.644 106.001 240.644ZM106.001 239.276C104.477 239.276 103.193 237.956 103.193 236.372C103.193 234.8 104.477 233.48 106.001 233.48C107.513 233.48 108.785 234.8 108.785 236.372C108.785 237.956 107.513 239.276 106.001 239.276ZM115.716 240.644C116.928 240.644 118.032 240.128 118.824 239.3L117.768 238.316C117.252 238.904 116.52 239.276 115.716 239.276C114.192 239.276 112.908 237.956 112.908 236.372C112.908 234.8 114.192 233.48 115.716 233.48C116.508 233.48 117.252 233.852 117.756 234.44L118.824 233.444C118.032 232.628 116.928 232.112 115.716 232.112C113.364 232.112 111.384 234.056 111.384 236.372C111.384 238.688 113.364 240.644 115.716 240.644Z" fill="black" fill-opacity="0.4"/>
<path d="M133.6 240.644C135.484 240.644 136.768 239.54 136.768 237.836C136.768 236.18 135.508 235.244 134.044 235.244C133.336 235.244 132.796 235.46 132.376 235.748L132.448 233.624H136.324V232.256H131.044L130.924 236.636L131.944 237.068C132.412 236.708 132.976 236.492 133.624 236.492C134.608 236.492 135.268 237.056 135.268 237.896C135.268 238.7 134.632 239.348 133.624 239.348C132.796 239.348 132.04 238.928 131.404 238.304L130.516 239.372C131.248 240.14 132.256 240.644 133.6 240.644ZM140.936 240.644C142.82 240.644 144.104 239.54 144.104 237.836C144.104 236.18 142.844 235.244 141.38 235.244C140.672 235.244 140.132 235.46 139.712 235.748L139.784 233.624H143.66V232.256H138.38L138.26 236.636L139.28 237.068C139.748 236.708 140.312 236.492 140.96 236.492C141.944 236.492 142.604 237.056 142.604 237.896C142.604 238.7 141.968 239.348 140.96 239.348C140.132 239.348 139.376 238.928 138.74 238.304L137.852 239.372C138.584 240.14 139.592 240.644 140.936 240.644ZM148.272 240.644C150.156 240.644 151.44 239.54 151.44 237.836C151.44 236.18 150.18 235.244 148.716 235.244C148.008 235.244 147.468 235.46 147.048 235.748L147.12 233.624H150.996V232.256H145.716L145.596 236.636L146.616 237.068C147.084 236.708 147.648 236.492 148.296 236.492C149.28 236.492 149.94 237.056 149.94 237.896C149.94 238.7 149.304 239.348 148.296 239.348C147.468 239.348 146.712 238.928 146.076 238.304L145.188 239.372C145.92 240.14 146.928 240.644 148.272 240.644ZM158.668 234.296H156.94L154.252 237.236V232.112H152.788V240.5H154.252V238.952L155.128 238.028L156.88 240.5H158.584L156.112 237.068L158.668 234.296ZM163.21 234.152C162.286 234.152 161.542 234.572 161.05 235.28V232.112H159.586V240.5H161.05V239.516C161.542 240.224 162.286 240.644 163.21 240.644C164.854 240.644 166.054 239.3 166.054 237.392C166.054 235.496 164.854 234.152 163.21 234.152ZM162.814 239.396C161.782 239.396 161.062 238.556 161.062 237.392C161.062 236.228 161.782 235.4 162.814 235.4C163.858 235.4 164.602 236.228 164.602 237.392C164.602 238.556 163.858 239.396 162.814 239.396Z" fill="black" fill-opacity="0.4"/>
<rect x="294" y="206" width="40" height="40" rx="20" fill="#615EF0" fill-opacity="0.1"/>
<path d="M321.5 228.375H319.391L317.516 230.25H321.5C321.812 230.25 322.125 230.562 322.125 230.875V234C322.125 234.352 321.812 234.625 321.5 234.625H306.5C306.148 234.625 305.875 234.352 305.875 234V230.875C305.875 230.562 306.148 230.25 306.5 230.25H310.445L308.57 228.375H306.5C305.094 228.375 304 229.508 304 230.875V234C304 235.406 305.094 236.5 306.5 236.5H321.5C322.867 236.5 324 235.406 324 234V230.875C324 229.508 322.867 228.375 321.5 228.375ZM320.875 232.438C320.875 231.93 320.445 231.5 319.938 231.5C319.391 231.5 319 231.93 319 232.438C319 232.984 319.391 233.375 319.938 233.375C320.445 233.375 320.875 232.984 320.875 232.438ZM313.336 230.914C313.492 231.109 313.727 231.188 314 231.188C314.234 231.188 314.469 231.109 314.625 230.914L319.938 225.602C320.328 225.25 320.328 224.664 319.938 224.312C319.586 223.922 319 223.922 318.648 224.312L314.938 228.023V217.438C314.938 216.93 314.508 216.5 314 216.5C313.453 216.5 313.062 216.93 313.062 217.438V228.023L309.312 224.273C308.922 223.922 308.336 223.922 307.984 224.273C307.594 224.664 307.594 225.25 307.984 225.602L313.336 230.914Z" fill="#615EF0"/>
<rect x="28" y="282" width="48" height="48" rx="12" fill="#FAF5FF"/>
<path d="M60.1094 299.906L55.0938 294.891C54.5312 294.328 53.7812 294 52.9844 294H46C44.3125 294 43 295.359 43 297V315C43 316.688 44.3125 318 46 318H58C59.6406 318 61 316.688 61 315V302.016C61 301.219 60.6719 300.469 60.1094 299.906ZM53.5 295.641C53.6875 295.688 53.875 295.781 54.0625 295.969L59.0312 300.938C59.2188 301.125 59.3125 301.312 59.3594 301.5H54.25C53.8281 301.5 53.5 301.172 53.5 300.75V295.641ZM59.5 315C59.5 315.844 58.7969 316.5 58 316.5H46C45.1562 316.5 44.5 315.844 44.5 315V297C44.5 296.203 45.1562 295.5 46 295.5H52V300.75C52 302.016 52.9844 303 54.25 303H59.5V315ZM52 308.484L49.9844 305.578C49.75 305.25 49.2812 305.156 48.9062 305.391C48.5781 305.625 48.4844 306.094 48.7188 306.469L51.0625 309.75L48.7188 313.078C48.4844 313.453 48.5781 313.922 48.9062 314.156C49.0469 314.25 49.1875 314.25 49.3281 314.25C49.5625 314.25 49.7969 314.156 49.9375 313.969L52 311.062L53.9688 313.969C54.1094 314.156 54.3438 314.25 54.625 314.25C54.7656 314.25 54.9062 314.25 55.0469 314.156C55.375 313.922 55.4688 313.453 55.2344 313.078L52.8906 309.75L55.2344 306.469C55.4688 306.094 55.375 305.625 55.0469 305.391C54.6719 305.156 54.2031 305.25 53.9688 305.578L52 308.484Z" fill="#9F7AEA"/>
<path d="M95.374 301.668C97.25 301.668 98.58 300.296 98.58 298.364V291.882H96.844V298.252C96.844 299.33 96.172 300.086 95.22 300.086C94.492 300.086 93.75 299.596 93.414 298.924L92.238 300.072C92.868 301.01 94.17 301.668 95.374 301.668ZM103.914 300.156C102.878 300.156 102.122 299.456 101.912 298.462H107.372C107.372 295.788 106.07 294.094 103.83 294.094C101.772 294.094 100.148 295.69 100.148 297.86C100.148 300.086 101.856 301.668 103.928 301.668C104.978 301.668 106.238 301.22 106.868 300.548L105.79 299.428C105.384 299.848 104.586 300.156 103.914 300.156ZM103.9 295.606C104.922 295.606 105.538 296.25 105.734 297.16H101.926C102.178 296.208 102.948 295.606 103.9 295.606ZM110.602 295.662V294.262H108.894V301.5H110.602V297.846C110.602 296.474 111.638 295.55 113.192 295.55V294.094C112.002 294.094 111.064 294.696 110.602 295.662ZM116.208 295.662V294.262H114.5V301.5H116.208V297.846C116.208 296.474 117.244 295.55 118.798 295.55V294.094C117.608 294.094 116.67 294.696 116.208 295.662ZM121.533 304.02C122.625 304.006 123.465 303.376 124.011 302.004L127.077 294.262H125.313L123.325 299.666L121.211 294.262H119.405L122.471 301.556L122.163 302.2C121.953 302.55 121.645 302.676 121.239 302.676C120.973 302.676 120.623 302.578 120.315 302.41L119.951 303.642C120.385 303.88 120.987 304.02 121.533 304.02ZM128.192 298.406H131.958V296.908H128.192V298.406ZM133.276 301.5H140.346V299.904H135.992L138.008 298.28C139.66 297.006 140.248 295.984 140.248 294.71C140.248 292.932 138.792 291.714 136.888 291.714C135.334 291.714 134.172 292.4 133.262 293.59L134.396 294.64C135.096 293.8 135.824 293.282 136.832 293.282C137.7 293.282 138.47 293.842 138.47 294.752C138.47 295.536 138.036 296.264 136.818 297.244L133.276 300.072V301.5ZM145.996 301.668C148.46 301.668 150.196 299.61 150.196 296.684C150.196 293.772 148.46 291.714 145.996 291.714C143.518 291.714 141.768 293.772 141.768 296.684C141.768 299.61 143.518 301.668 145.996 301.668ZM145.996 300.072C144.568 300.072 143.56 298.672 143.56 296.684C143.56 294.696 144.568 293.31 145.996 293.31C147.41 293.31 148.418 294.696 148.418 296.684C148.418 298.672 147.41 300.072 145.996 300.072ZM151.528 301.5H158.598V299.904H154.244L156.26 298.28C157.912 297.006 158.5 295.984 158.5 294.71C158.5 292.932 157.044 291.714 155.14 291.714C153.586 291.714 152.424 292.4 151.514 293.59L152.648 294.64C153.348 293.8 154.076 293.282 155.084 293.282C155.952 293.282 156.722 293.842 156.722 294.752C156.722 295.536 156.288 296.264 155.07 297.244L151.528 300.072V301.5ZM164.248 301.668C166.712 301.668 168.448 299.61 168.448 296.684C168.448 293.772 166.712 291.714 164.248 291.714C161.77 291.714 160.02 293.772 160.02 296.684C160.02 299.61 161.77 301.668 164.248 301.668ZM164.248 300.072C162.82 300.072 161.812 298.672 161.812 296.684C161.812 294.696 162.82 293.31 164.248 293.31C165.662 293.31 166.67 294.696 166.67 296.684C166.67 298.672 165.662 300.072 164.248 300.072ZM169.122 303.586H177.466V302.466H169.122V303.586ZM178.458 301.5H180.194V291.882H178.458V301.5ZM181.895 298.406H185.661V296.908H181.895V298.406ZM190.634 291.714C188.562 291.714 187.05 293.086 187.05 294.99C187.05 296.908 188.52 298.028 190.284 298.028C191.264 298.028 192.188 297.622 192.776 296.936C192.664 298.826 191.698 300.128 190.34 300.128C189.486 300.128 188.898 299.778 188.31 299.26L187.456 300.59C188.226 301.248 189.136 301.668 190.326 301.668C192.832 301.668 194.582 299.498 194.582 296.53C194.582 293.758 193.364 291.714 190.634 291.714ZM190.746 296.6C189.696 296.6 188.828 295.97 188.828 294.92C188.828 294.038 189.542 293.198 190.718 293.198C191.88 293.198 192.482 293.996 192.692 295.27C192.412 296.082 191.67 296.6 190.746 296.6ZM195.222 303.586H203.566V302.466H195.222V303.586ZM211.767 293.478V291.882H204.529V301.5H206.279V297.51H211.249V295.914H206.279V293.478H211.767ZM216.737 301.668C218.837 301.668 220.615 299.932 220.615 297.874C220.615 295.816 218.837 294.094 216.737 294.094C214.637 294.094 212.859 295.816 212.859 297.874C212.859 299.932 214.637 301.668 216.737 301.668ZM216.737 300.212C215.533 300.212 214.525 299.148 214.525 297.874C214.525 296.614 215.533 295.55 216.737 295.55C217.927 295.55 218.935 296.614 218.935 297.874C218.935 299.148 217.927 300.212 216.737 300.212ZM223.846 295.662V294.262H222.138V301.5H223.846V297.846C223.846 296.474 224.882 295.55 226.436 295.55V294.094C225.246 294.094 224.308 294.696 223.846 295.662ZM236.06 294.094C234.982 294.094 234.072 294.626 233.722 295.466C233.274 294.612 232.434 294.094 231.412 294.094C230.502 294.094 229.76 294.542 229.396 295.242V294.262H227.688V301.5H229.396V297.062C229.396 296.18 230.054 295.55 230.978 295.55C231.818 295.55 232.392 296.222 232.392 297.174V301.5H234.058V297.062C234.058 296.18 234.702 295.55 235.64 295.55C236.466 295.55 237.04 296.222 237.04 297.174V301.5H238.706V296.894C238.706 295.256 237.572 294.094 236.06 294.094ZM241.589 301.668C242.177 301.668 242.667 301.164 242.667 300.548C242.667 299.974 242.177 299.47 241.589 299.47C240.945 299.47 240.469 299.974 240.469 300.548C240.469 301.164 240.945 301.668 241.589 301.668ZM251.072 301.5L248.356 297.79L250.946 294.262H249.084L247.432 296.516L245.78 294.262H243.904L246.494 297.804L243.778 301.5H245.64L247.418 299.078L249.182 301.5H251.072ZM258.92 301.5L256.204 297.79L258.794 294.262H256.932L255.28 296.516L253.628 294.262H251.752L254.342 297.804L251.626 301.5H253.488L255.266 299.078L257.03 301.5H258.92ZM260.131 301.5H261.839V291.714H260.131V301.5Z" fill="black"/>
<path d="M100.184 312.256H98.432L96.248 315.184L94.076 312.256H92.288L95.348 316.384L92.288 320.5H94.052L96.236 317.572L98.408 320.5H100.184L97.124 316.372L100.184 312.256ZM108.668 312.256H106.916L104.732 315.184L102.56 312.256H100.772L103.832 316.384L100.772 320.5H102.536L104.72 317.572L106.892 320.5H108.668L105.608 316.372L108.668 312.256ZM111.237 319.132V312.256H109.749V320.5H115.473V319.132H111.237Z" fill="black" fill-opacity="0.4"/>
<path d="M126.54 320.5H132.6V319.132H128.868L130.596 317.74C132.012 316.648 132.516 315.772 132.516 314.68C132.516 313.156 131.268 312.112 129.636 312.112C128.304 312.112 127.308 312.7 126.528 313.72L127.5 314.62C128.1 313.9 128.724 313.456 129.588 313.456C130.332 313.456 130.992 313.936 130.992 314.716C130.992 315.388 130.62 316.012 129.576 316.852L126.54 319.276V320.5ZM137.802 320.5H139.29V318.712H140.43V317.428H139.29V312.256H137.502L133.59 317.548L133.734 318.712H137.802V320.5ZM135.186 317.428L137.802 313.888V317.428H135.186ZM148.874 314.152C147.95 314.152 147.17 314.608 146.87 315.328C146.486 314.596 145.766 314.152 144.89 314.152C144.11 314.152 143.474 314.536 143.162 315.136V314.296H141.698V320.5H143.162V316.696C143.162 315.94 143.726 315.4 144.518 315.4C145.238 315.4 145.73 315.976 145.73 316.792V320.5H147.158V316.696C147.158 315.94 147.71 315.4 148.514 315.4C149.222 315.4 149.714 315.976 149.714 316.792V320.5H151.142V316.552C151.142 315.148 150.17 314.152 148.874 314.152ZM156.386 314.152C155.462 314.152 154.718 314.572 154.226 315.28V312.112H152.762V320.5H154.226V319.516C154.718 320.224 155.462 320.644 156.386 320.644C158.03 320.644 159.23 319.3 159.23 317.392C159.23 315.496 158.03 314.152 156.386 314.152ZM155.99 319.396C154.958 319.396 154.238 318.556 154.238 317.392C154.238 316.228 154.958 315.4 155.99 315.4C157.034 315.4 157.778 316.228 157.778 317.392C157.778 318.556 157.034 319.396 155.99 319.396Z" fill="black" fill-opacity="0.4"/>
<rect x="294" y="286" width="40" height="40" rx="20" fill="#615EF0" fill-opacity="0.1"/>
<path d="M321.5 308.375H319.391L317.516 310.25H321.5C321.812 310.25 322.125 310.562 322.125 310.875V314C322.125 314.352 321.812 314.625 321.5 314.625H306.5C306.148 314.625 305.875 314.352 305.875 314V310.875C305.875 310.562 306.148 310.25 306.5 310.25H310.445L308.57 308.375H306.5C305.094 308.375 304 309.508 304 310.875V314C304 315.406 305.094 316.5 306.5 316.5H321.5C322.867 316.5 324 315.406 324 314V310.875C324 309.508 322.867 308.375 321.5 308.375ZM320.875 312.438C320.875 311.93 320.445 311.5 319.938 311.5C319.391 311.5 319 311.93 319 312.438C319 312.984 319.391 313.375 319.938 313.375C320.445 313.375 320.875 312.984 320.875 312.438ZM313.336 310.914C313.492 311.109 313.727 311.188 314 311.188C314.234 311.188 314.469 311.109 314.625 310.914L319.938 305.602C320.328 305.25 320.328 304.664 319.938 304.312C319.586 303.922 319 303.922 318.648 304.312L314.938 308.023V297.438C314.938 296.93 314.508 296.5 314 296.5C313.453 296.5 313.062 296.93 313.062 297.438V308.023L309.312 304.273C308.922 303.922 308.336 303.922 307.984 304.273C307.594 304.664 307.594 305.25 307.984 305.602L313.336 310.914Z" fill="#615EF0"/>
<rect x="28" y="362" width="48" height="48" rx="12" fill="#FFF5F5"/>
<rect x="294" y="366" width="40" height="40" rx="20" fill="#615EF0" fill-opacity="0.1"/>
</svg>
